<svg xmlns="http://www.w3.org/2000/svg" width="860" height="260" font-family="Poppins,Microsoft YaHei,sans-serif" font-size="13">
  <defs>
    <marker id="d-http" viewBox="0 0 10 7" markerWidth="10" markerHeight="7" refX="8.5" refY="3.5" orient="auto" markerUnits="userSpaceOnUse" overflow="visible">
      <polygon points="0 0,10 3.5,0 7" fill="#f76d37"/>
    </marker>
    <marker id="d-tcp" viewBox="0 0 10 7" markerWidth="10" markerHeight="7" refX="8.5" refY="3.5" orient="auto" markerUnits="userSpaceOnUse" overflow="visible">
      <polygon points="0 0,10 3.5,0 7" fill="#2563eb"/>
    </marker>
  </defs>

  <text x="430" y="26" text-anchor="middle" font-size="17" font-weight="bold" fill="#252525">图 4 · Docker Compose 容器架构</text>

  <!-- External -->
  <rect x="280" y="42" width="300" height="34" rx="6" fill="#f3f4f6" stroke="#9ca3af" stroke-width="1.2"/>
  <text x="430" y="64" text-anchor="middle" font-size="11" font-weight="bold" fill="#6b7280">外部访问 :80</text>

  <line x1="430" y1="76" x2="430" y2="100" stroke="#f76d37" stroke-width="1.8" marker-end="url(#d-http)"/>

  <!-- Nginx container -->
  <rect x="270" y="105" width="320" height="48" rx="8" fill="#fff" stroke="#252525" stroke-width="2"/>
  <text x="430" y="126" text-anchor="middle" font-weight="bold" fill="#252525">nginx :80</text>
  <text x="430" y="143" text-anchor="middle" font-size="10" fill="#6f6f6f">frontend/ 静态文件 · /api/* → flask:8000</text>

  <line x1="430" y1="153" x2="430" y2="176" stroke="#f76d37" stroke-width="1.8" marker-end="url(#d-http)"/>
  <text x="442" y="168" font-size="9" fill="#f76d37">proxy_pass</text>

  <!-- Flask container -->
  <rect x="270" y="180" width="320" height="48" rx="8" fill="#ede9fe" stroke="#7c3aed" stroke-width="2"/>
  <text x="430" y="201" text-anchor="middle" font-weight="bold" fill="#4c1d95">flask :8000</text>
  <text x="430" y="218" text-anchor="middle" font-size="10" fill="#5b21b6">Gunicorn (4 workers) · JWT · ML 模型服务</text>

  <line x1="430" y1="228" x2="430" y2="256" stroke="#2563eb" stroke-width="1.5" marker-end="url(#d-tcp)"/>
  <text x="442" y="245" font-size="9" fill="#2563eb">SQLAlchemy</text>

  <!-- MySQL container -->
  <rect x="270" y="260" width="320" height="48" rx="8" fill="#dbeafe" stroke="#2563eb" stroke-width="2"/>
  <text x="430" y="281" text-anchor="middle" font-weight="bold" fill="#1e3a8a">mysql :3306</text>
  <text x="430" y="298" text-anchor="middle" font-size="10" fill="#1e40af">数据卷持久化 · 初始化 SQL 自动执行</text>

  <!-- Docker boundary -->
  <rect x="220" y="115" width="420" height="230" rx="10" fill="none" stroke="#9ca3af" stroke-width="2" stroke-dasharray="8,4"/>
  <text x="230" y="110" font-size="11" font-weight="bold" fill="#6b7280" letter-spacing="2">DOCKER NETWORK</text>

  <!-- Volumes -->
  <rect x="670" y="190" width="160" height="40" rx="6" fill="#fef9c3" stroke="#ca8a04" stroke-width="1.2"/>
  <text x="750" y="207" text-anchor="middle" font-size="10" font-weight="bold" fill="#92400e">mysql_data</text>
  <text x="750" y="222" text-anchor="middle" font-size="9" fill="#78350f">Docker Volume</text>
  <line x1="590" y1="210" x2="668" y2="210" stroke="#ca8a04" stroke-width="1.2" stroke-dasharray="4,3"/>
</svg>
