<svg xmlns="http://www.w3.org/2000/svg" width="860" height="420" font-family="Poppins,Microsoft YaHei,sans-serif" font-size="13">
  <defs>
    <marker id="arr-call" viewBox="0 0 10 7" markerWidth="10" markerHeight="7" refX="8.5" refY="3.5" orient="auto" markerUnits="userSpaceOnUse" overflow="visible">
      <polygon points="0 0,10 3.5,0 7" fill="#6b7280"/>
    </marker>
    <marker id="arr-data" viewBox="0 0 10 7" markerWidth="10" markerHeight="7" refX="8.5" refY="3.5" orient="auto" markerUnits="userSpaceOnUse" overflow="visible">
      <polygon points="0 0,10 3.5,0 7" fill="#f76d37"/>
    </marker>
    <marker id="arr-sql" viewBox="0 0 10 7" markerWidth="10" markerHeight="7" refX="8.5" refY="3.5" orient="auto" markerUnits="userSpaceOnUse" overflow="visible">
      <polygon points="0 0,10 3.5,0 7" fill="#2563eb"/>
    </marker>
    <marker id="arr-gold" viewBox="0 0 10 7" markerWidth="10" markerHeight="7" refX="8.5" refY="3.5" orient="auto" markerUnits="userSpaceOnUse" overflow="visible">
      <polygon points="0 0,10 3.5,0 7" fill="#ca8a04"/>
    </marker>
  </defs>

  <text x="430" y="26" text-anchor="middle" font-size="17" font-weight="bold" fill="#252525">图 2 · 功能模块架构</text>

  <!-- Frontend layer -->
  <rect x="60" y="48" width="740" height="42" rx="6" fill="#f3f4f6" stroke="#9ca3af" stroke-width="1.2"/>
  <text x="80" y="74" font-size="12" font-weight="bold" fill="#6b7280">表现层 (Frontend)</text>

  <!-- Frontend boxes -->
  <rect x="60" y="100" width="115" height="50" rx="6" fill="#fff4ee" stroke="#f76d37" stroke-width="1.5"/>
  <text x="117" y="120" text-anchor="middle" font-size="11" font-weight="bold" fill="#f76d37">登录/注册</text>
  <text x="117" y="137" text-anchor="middle" font-size="10" fill="#d85521">JWT Auth</text>

  <rect x="185" y="100" width="115" height="50" rx="6" fill="#fff4ee" stroke="#f76d37" stroke-width="1.5"/>
  <text x="242" y="120" text-anchor="middle" font-size="11" font-weight="bold" fill="#f76d37">数据概览</text>
  <text x="242" y="137" text-anchor="middle" font-size="10" fill="#d85521">6 KPI Cards</text>

  <rect x="310" y="100" width="115" height="50" rx="6" fill="#fff4ee" stroke="#f76d37" stroke-width="1.5"/>
  <text x="367" y="120" text-anchor="middle" font-size="11" font-weight="bold" fill="#f76d37">数据浏览</text>
  <text x="367" y="137" text-anchor="middle" font-size="10" fill="#d85521">Table + Filter</text>

  <rect x="435" y="100" width="115" height="50" rx="6" fill="#fff4ee" stroke="#f76d37" stroke-width="1.5"/>
  <text x="492" y="120" text-anchor="middle" font-size="11" font-weight="bold" fill="#f76d37">数据分析</text>
  <text x="492" y="137" text-anchor="middle" font-size="10" fill="#d85521">5 Charts</text>

  <rect x="560" y="100" width="115" height="50" rx="6" fill="#fff4ee" stroke="#f76d37" stroke-width="1.5"/>
  <text x="617" y="120" text-anchor="middle" font-size="11" font-weight="bold" fill="#f76d37">模型预测</text>
  <text x="617" y="137" text-anchor="middle" font-size="10" fill="#d85521">SHAP Explain</text>

  <rect x="685" y="100" width="115" height="50" rx="6" fill="#fff4ee" stroke="#f76d37" stroke-width="1.5"/>
  <text x="742" y="120" text-anchor="middle" font-size="11" font-weight="bold" fill="#f76d37">模型对比</text>
  <text x="742" y="137" text-anchor="middle" font-size="10" fill="#d85521">4 Models</text>

  <!-- Arrows down -->
  <line x1="117" y1="150" x2="117" y2="190" stroke="#f76d37" stroke-width="1.3" marker-end="url(#arr-data)"/>
  <line x1="242" y1="150" x2="242" y2="190" stroke="#f76d37" stroke-width="1.3" marker-end="url(#arr-data)"/>
  <line x1="367" y1="150" x2="367" y2="190" stroke="#f76d37" stroke-width="1.3" marker-end="url(#arr-data)"/>
  <line x1="492" y1="150" x2="492" y2="190" stroke="#f76d37" stroke-width="1.3" marker-end="url(#arr-data)"/>
  <line x1="617" y1="150" x2="617" y2="190" stroke="#f76d37" stroke-width="1.3" marker-end="url(#arr-data)"/>
  <line x1="742" y1="150" x2="742" y2="190" stroke="#f76d37" stroke-width="1.3" marker-end="url(#arr-data)"/>

  <!-- API layer -->
  <rect x="60" y="195" width="740" height="42" rx="6" fill="#f3f4f6" stroke="#9ca3af" stroke-width="1.2"/>
  <text x="80" y="221" font-size="12" font-weight="bold" fill="#6b7280">服务层 (Backend API)</text>

  <!-- Backend boxes -->
  <rect x="60" y="248" width="170" height="50" rx="6" fill="#ede9fe" stroke="#7c3aed" stroke-width="1.5"/>
  <text x="145" y="268" text-anchor="middle" font-size="11" font-weight="bold" fill="#4c1d95">认证服务 (auth.py)</text>
  <text x="145" y="285" text-anchor="middle" font-size="10" fill="#5b21b6">register · login · JWT</text>

  <rect x="245" y="248" width="170" height="50" rx="6" fill="#ede9fe" stroke="#7c3aed" stroke-width="1.5"/>
  <text x="330" y="268" text-anchor="middle" font-size="11" font-weight="bold" fill="#4c1d95">数据服务 (coffee.py)</text>
  <text x="330" y="285" text-anchor="middle" font-size="10" fill="#5b21b6">CRUD · 分页 · 筛选</text>

  <rect x="430" y="248" width="170" height="50" rx="6" fill="#ede9fe" stroke="#7c3aed" stroke-width="1.5"/>
  <text x="515" y="268" text-anchor="middle" font-size="11" font-weight="bold" fill="#4c1d95">统计服务 (stats.py)</text>
  <text x="515" y="285" text-anchor="middle" font-size="10" fill="#5b21b6">聚合 · 相关性 · 洞察</text>

  <rect x="615" y="248" width="185" height="50" rx="6" fill="#ede9fe" stroke="#7c3aed" stroke-width="1.5"/>
  <text x="707" y="268" text-anchor="middle" font-size="11" font-weight="bold" fill="#4c1d95">模型服务 (model_route.py)</text>
  <text x="707" y="285" text-anchor="middle" font-size="10" fill="#5b21b6">Predict · SHAP · Compare</text>

  <!-- Data layer -->
  <rect x="60" y="320" width="740" height="42" rx="6" fill="#f3f4f6" stroke="#9ca3af" stroke-width="1.2"/>
  <text x="80" y="346" font-size="12" font-weight="bold" fill="#6b7280">数据层 (Data Layer)</text>

  <rect x="60" y="370" width="340" height="26" rx="5" fill="#dbeafe" stroke="#2563eb" stroke-width="1.2"/>
  <text x="230" y="388" text-anchor="middle" font-size="11" font-weight="bold" fill="#1e3a8a">MySQL: users · coffees · predictions</text>

  <rect x="420" y="370" width="380" height="26" rx="5" fill="#fef9c3" stroke="#ca8a04" stroke-width="1.2"/>
  <text x="610" y="388" text-anchor="middle" font-size="11" font-weight="bold" fill="#92400e">ML Models: rf.pkl · xgb.pkl · lgbm.pkl · gbdt.pkl</text>

  <!-- Arrows from backend to data -->
  <line x1="230" y1="300" x2="230" y2="368" stroke="#2563eb" stroke-width="1.2" stroke-dasharray="4,3" marker-end="url(#arr-sql)"/>
  <line x1="610" y1="300" x2="610" y2="368" stroke="#ca8a04" stroke-width="1.2" stroke-dasharray="4,3" marker-end="url(#arr-gold)"/>
</svg>
